<svg width="128" height="20" viewBox="0 0 128 20" fill="none" xmlns="http://www.w3.org/2000/svg">
<g clip-path="url(#clip0_2002_383)">
<path d="M0 3.42334H13.5663V8.06024H5.41623V10.1241H12.9858V14.3445H5.41623V19.6535C2.42505 19.6535 0 17.2248 0 14.229V3.42334Z" fill="#16A34A"/>
<path d="M37.3577 11.3982L32.1021 3.42334H36.6805C37.6624 3.42334 38.5703 3.93672 39.0787 4.77792L40.6001 7.29533L42.142 4.76761C42.6505 3.93259 43.5562 3.42334 44.5341 3.42334H49.0034L43.7477 11.3302L49.2339 19.6535H44.6494C43.6715 19.6535 42.7657 19.1443 42.2573 18.3072L40.5074 15.4331L38.735 18.3175C38.2244 19.1484 37.3207 19.6535 36.347 19.6535H31.8715L37.3577 11.4003V11.3982Z" fill="#16A34A"/>
<path d="M16.4236 16.0767C16.5616 16.2849 16.7077 16.4911 16.8662 16.6993C16.7077 16.4993 16.5595 16.2911 16.4236 16.0767Z" fill="#16A34A"/>
<path d="M19.4087 13.7754C19.559 13.996 19.7216 14.2063 19.8945 14.4063C19.8225 14.33 19.6207 14.1115 19.4087 13.7754Z" fill="#16A34A"/>
<path d="M16.8683 16.6992C16.8767 16.7095 16.8871 16.7219 16.8976 16.7322C16.8976 16.7322 16.8788 16.7095 16.8704 16.6992H16.8683Z" fill="#16A34A"/>
<path d="M19.9235 14.4352C19.9235 14.4352 19.9151 14.427 19.913 14.4229L19.9255 14.4352H19.9235Z" fill="#16A34A"/>
<path d="M22.5404 0.0978244C22.5299 0.0524657 22.5112 0.0256628 22.5007 0.0112305C22.5153 0.0400951 22.5279 0.0689598 22.5404 0.0978244Z" fill="#16A34A"/>
<path d="M30.3317 5.59019C31.2931 6.76952 31.8716 8.27254 31.8716 9.91164C31.8716 13.6888 28.8145 16.7505 25.0431 16.7505C23.3139 16.7505 21.737 16.1052 20.5327 15.0434C20.0469 14.5857 18.7191 13.0352 20.6912 11.2456C20.6912 11.2456 19.6063 10.6229 18.8076 12.1136C18.6964 11.058 19.0587 9.73845 20.6912 8.36944C22.2043 7.10352 23.1863 5.30567 23.248 3.314C23.2501 3.24184 23.2501 3.17174 23.2501 3.10164C23.248 2.13055 23.0236 1.11617 22.5378 0.0976562C22.6016 0.367747 22.3834 1.26461 18.6347 3.42328C15.1041 5.45617 13.2123 11.1095 16.3537 15.9732C16.3743 16.0083 16.3969 16.0413 16.4216 16.0763C16.5596 16.2845 16.7057 16.4907 16.8642 16.699C16.8725 16.7093 16.8828 16.7216 16.8931 16.7319C18.4803 18.7277 21.0021 19.9998 23.9274 19.9998C28.9278 19.9998 32.7938 16.2433 32.7938 11.5363V11.4909C32.7938 9.17353 31.8675 7.0994 30.3297 5.59019H30.3317ZM22.5234 1.17596C22.5234 1.17596 23.6186 3.29545 22.159 5.2335L21.9943 4.21087L19.7587 5.2335L20.3351 3.42328L18.9476 3.73667C18.9476 3.73667 22.3834 1.64192 22.5234 1.17802V1.17596Z" fill="#16A34A"/>
<path d="M22.4925 0.000976562C22.4925 0.000976562 22.4967 0.00510008 22.4988 0.00922361C22.4988 0.00922361 22.4988 0.00716185 22.4988 0.00510008C22.4967 0.00510008 22.4946 0.00303832 22.4925 0.000976562Z" fill="#16A34A"/>
<path d="M27.777 4.70194C25.9963 4.16588 24.1517 4.69163 22.9166 5.91425C24.055 5.20707 25.4466 4.92461 26.8341 5.19676C28.5078 5.62355 28.5531 6.60701 28.5531 6.60701C28.7857 6.44619 28.5613 5.86683 28.5531 5.84828C30.0744 6.74102 31.0605 8.31827 31.2231 10.0501C31.536 7.7018 30.1135 5.40912 27.777 4.704V4.70194Z" fill="#16A34A"/>
<path d="M48.3261 11.6252V11.5799C48.3261 6.87495 52.0357 3.36377 57.0032 3.36377C59.7 3.36377 61.8801 4.26476 63.5887 5.74923L60.6449 9.30577C59.6115 8.42745 58.4648 7.93263 57.1617 7.93263C55.1154 7.93263 53.6332 9.50782 53.6332 11.6479V11.6933C53.6332 13.922 55.1834 15.4519 57.3861 15.4519C58.2857 15.4519 58.7798 15.3179 59.1833 15.0911V13.5159L56.4865 10.1387H64.1054V17.4332C62.3968 18.829 60.015 19.796 57.1596 19.796C52.2601 19.796 48.3261 16.5096 48.3261 11.6232V11.6252Z" fill="#0F172A"/>
<path d="M65.6329 3.70166H73.3198C76.1072 3.70166 77.8838 4.39854 78.9851 5.50158C79.93 6.44793 80.4241 7.61695 80.4241 9.23955V9.28491C80.4241 11.5817 79.2322 13.1796 77.3218 14.1032L80.9861 19.4618H76.5683C75.5781 19.4618 74.6559 18.9649 74.1103 18.1381L72.0167 14.9609H70.8927V19.4638H65.6329V3.70166ZM73.1634 11.1982C74.4212 11.1982 75.187 10.6354 75.187 9.6684V9.62304C75.187 8.61071 74.4006 8.11383 73.186 8.11383H70.8927V11.1982H73.1634Z" fill="#0F172A"/>
<path d="M81.7046 3.70166H95.1227V8.02311H86.8738V9.62098H94.5607V13.4249H86.8738V15.1362H95.2359V19.4576H81.7046V3.70166Z" fill="#0F172A"/>
<path d="M96.6501 3.70166H110.068V8.02311H101.819V9.62098H109.506V13.4249H101.819V15.1362H110.181V19.4576H96.6501V3.70166Z" fill="#0F172A"/>
<path d="M111.598 3.70166C114.71 3.70166 117.656 5.11397 119.61 7.54066L122.117 10.658V8.9241C122.117 6.0397 124.452 3.70166 127.332 3.70166V19.4597H122.657L116.812 12.1879V19.4597H111.598V3.70166Z" fill="#0F172A"/>
</g>
<defs>
<clipPath id="clip0_2002_383">
<rect width="127.429" height="20" fill="white"/>
</clipPath>
</defs>
</svg>
